<svg width="289" height="289" viewBox="0 0 289 289" fill="none" xmlns="http://www.w3.org/2000/svg">
<rect x="7.5" y="7.5" width="274" height="274" rx="57.5" stroke="black" stroke-width="15"/>
<path d="M70.1871 90.1881C68.1463 92.2322 67 95.0029 67 97.8918C67 100.781 68.1463 103.551 70.1871 105.595L109.71 145.131L70.1871 184.667C68.2621 186.733 67.2141 189.467 67.2639 192.291C67.3138 195.115 68.4575 197.81 70.4541 199.807C72.4508 201.804 75.1445 202.948 77.9678 202.998C80.791 203.048 83.5234 202 85.5893 200.074L132.813 152.835C134.854 150.791 136 148.02 136 145.131C136 142.242 134.854 139.472 132.813 137.428L85.5893 90.1881C83.5459 88.1467 80.7761 87 77.8882 87C75.0003 87 72.2304 88.1467 70.1871 90.1881Z" fill="black"/>
<rect x="141" y="181" width="82" height="22" rx="11" fill="black"/>
</svg>
